#!OML:ASF F:\VICON\USERDATA\INSTALL\rory3\rory3.ASF
:FULLY-SPECIFIED
:DEGREES
36
root 0.6696711440099328 17.699657471259588 5.217300743704283 -1.7215112390835055 2.591388685740543 1.2922986910583627
lfemur 17.72250745327746 -5.216689287697665 -25.001144913772094
ltibia 23.07697597853451
lfoot -7.0250119875569865 -8.151482981368996
ltoes -20.66869883073185
rfemur -29.79304492465937 4.3883892279538115 20.300773657879795
rtibia 19.743407860893598
rfoot -2.186053346150526 -8.499950470712548
rtoes -1.8205182790408374
lowerback 9.57962939114271 -1.6803868856255222 -3.946922538543956
upperback 0.22892901094654033 -2.5885955134323733 2.036331166434628
thorax -4.943654362559833 -1.1490587094337155 4.744734871431379
lowerneck -17.052989433501804 -2.5838938212342146 -1.8306993279147856
upperneck 20.437125238124793 -3.1225596587612836 0.16792842154816534
head 9.296048079530072 -1.5825421944091271 -0.07258734970901648
lclavicle -1.1435929374407072e-15 -9.51457832279407e-16
lhumerus -23.06478874839776 -3.377938607653234 80.25977705760467
lradius 31.438477544960385
lwrist 7.80346656474393
lhand -31.035298305593958 22.910979592227278
lfingers 7.125020000000056
lthumb -4.316875145010639 52.85946025841959
rclavicle -1.1435929374407072e-15 -9.51457832279407e-16
rhumerus -39.591003420248605 -31.66512832495232 -68.97698742038526
rradius 17.741501226683667
rwrist 13.393163063960458
rhand -17.59715727289035 29.7003045834929
rfingers 7.125020000000056
rthumb 8.659450672479306 -7.650796454633896
37
root 0.6382060295268013 17.775267396458116 6.091634228473367 -2.464590546576762 2.545827794917092 -0.20167912021674628
lfemur 14.819635769483128 -5.0514412688644725 -22.52660508877456
ltibia 32.991328403260205
lfoot 1.0337512489940757 -12.50006418510138
ltoes -21.790024144274316
rfemur -27.808784437775692 4.171504832037698 22.87089067067501
rtibia 24.290396507893433
rfoot -1.6914055657468878 -6.20823974760111
rtoes 3.704243563713815
lowerback 9.64458897797529 -1.737038579015251 -2.689724880747706
upperback 0.21510726307590466 -2.4990543720553444 2.5194962158908987
thorax -5.029845717918434 -1.1292393894970378 4.483375327432829
lowerneck -16.88568462833727 -2.458508063212469 -1.7668460806644337
upperneck 20.775572076268574 -2.899323689543006 -0.15791090501396354
head 9.367235210585578 -1.5111251368982517 -0.17005055227256027
lclavicle -1.1537436808799876e-15 -9.593175809274729e-16
lhumerus -24.629275526511734 -2.2104025420077837 80.73524766645454
lradius 30.297067923316774
lwrist 7.272789901005556
lhand -30.578437344965593 23.334137800073243
lfingers 7.125020000000056
lthumb -3.8756941991612894 53.28257377200059
rclavicle -1.1537436808799876e-15 -9.593175809274729e-16
rhumerus -40.12473655786236 -33.45215493156355 -67.3175555374562
rradius 16.127075797051212
rwrist 15.458423441451878
rhand -17.60878525058564 29.88337998069149
rfingers 7.125020000000056
rthumb 8.64836439043895 -7.940398148576044
38
root 0.591408097873324 17.869449754870292 7.150848724004785 -3.1879555801497688 2.469658173233668 -1.8091283195728507
lfemur 9.813873392957163 -4.290041787825689 -19.694313757694772
ltibia 44.81058668160686
lfoot 10.197516142670068 -17.016555398250198
ltoes -18.49862390623777
rfemur -25.021629416628727 4.194831227446591 25.40419431152015
rtibia 26.88237829747436
rfoot -2.913193902532641 -5.282249499490053
rtoes 8.740002220555567
lowerback 9.850507023352424 -1.7170201398497924 -1.3563628065355344
upperback 0.20284080221559264 -2.3010696836091995 2.926947334123131
thorax -5.223320391082656 -1.0575469114118472 4.061448660458829
lowerneck -16.704282515678905 -2.431494929092782 -1.7172040441697587
upperneck 20.893476095184432 -2.845006746316896 -0.3512820309370781
head 9.363486816218058 -1.5021335691075661 -0.23669592623749125
lclavicle -1.3150348570721975e-15 -1.0842058065078937e-15
lhumerus -26.255422222614513 -1.618520441139668 81.33627363758788
lradius 28.987166825801808
lwrist 6.6152495164151635
lhand -29.829163135338963 23.74691741575662
lfingers 7.125020000000056
lthumb -3.152120274351496 53.69721261265967
rclavicle -1.3150348570721975e-15 -1.0842058065078937e-15
rhumerus -40.32455325599416 -33.92545734030804 -67.04641210986124
rradius 15.426601376831094
rwrist 15.634636434538109
rhand -17.530845427623586 29.846026807292773
rfingers 7.125020000000056
rthumb 8.72364611939504 -7.9100627373841945
39
root 0.5518582887720339 17.990833319802547 8.52321450619876 -3.746220305072569 2.400658508064588 -3.191794819850932
lfemur 3.8490904057210216 -2.889841546804265 -16.88339283166248
ltibia 57.31089157480903
lfoot 17.275735010896877 -19.510717145926886
ltoes -12.50817284247105
rfemur -21.261728591428145 4.57851922321313 27.86039334304255
rtibia 28.76250873442669
rfoot -4.709319614092552 -5.203130005138259
rtoes 12.012569297076361
lowerback 10.162395598319609 -1.5546043168033568 -0.07238862030539339
upperback 0.24033546159873392 -1.9275796263714806 3.222735478958051
thorax -5.374120839759311 -0.8988707976140707 3.6174434033269587
lowerneck -16.467314559785255 -2.5008118335936778 -1.6570583552785236
upperneck 20.946846869689576 -2.974027584601442 -0.2704230283537652
head 9.335153373360793 -1.55456086126136 -0.2323837469741965
lclavicle -1.0393051129432134e-15 -8.707074723014512e-16
lhumerus -27.500615485127454 -1.3674433929293102 82.14814137949845
lradius 28.507539310699173
lwrist 5.881285796078297
lhand -28.939483280413345 24.310183152226436
lfingers 7.125020000000057
lthumb -2.2929469591806413 54.26449830513545
rclavicle -1.0393051129432134e-15 -8.707074723014512e-16
rhumerus -39.390924677588046 -32.48793685293401 -68.08468186963458
rradius 16.505580104187914
rwrist 14.473099907142249
rhand -17.358950922589894 29.870780494847107
rfingers 7.125020000000057
rthumb 8.889483991811565 -7.315995588489361
